<?xml version="1.0" encoding="UTF-8"?>
<svg id="Layer_2" data-name="Layer 2" xmlns="http://www.w3.org/2000/svg" viewBox="0 0 430.2 512">
  <defs>
    <style>
      .cls-1 {
        stroke-width: 0px;
      }
    </style>
  </defs>
  <g id="Layer_1-2" data-name="Layer 1">
    <g>
      <path class="cls-1" d="m41.93,144.58h344c.23.77.65,1.53.65,2.29-.05,47.48-.3,94.97-.16,142.45.08,26.55-16.49,48.85-45.23,55.81-8.54,2.07-17.3,3.59-26.04,4.45-30.21,2.98-50.95,34.89-50.65,58.94.15,11.66-.1,23.33.07,34.99.03,2.48,1.07,4.96,1.79,8.02-1.28.06-3.15.21-5.03.21-56.14-.04-112.29-.06-168.43-.16-25.12-.04-49.48-22.24-50.66-47.59-1.13-24.44-.82-48.96-.84-73.44-.06-59.81.05-119.62.11-179.43,0-2.11.28-4.22.44-6.52Z"/>
      <path class="cls-1" d="m364.09,20.93c13.13,2.42,24.79,6.52,34.97,14.15,20.87,15.65,31.18,36.38,31.14,62.68-.19,105.16.08,210.33-.22,315.49-.07,23.47-4.99,46.07-18.65,65.82-13.73,19.85-33.78,29.73-57.02,31.86-18.85,1.73-37.94.81-56.93.85-44.66.11-89.32.11-133.99.14-26.66.02-53.33.1-79.99,0-35.3-.14-64.43-21.49-75.18-55.07C2.55,439.14-.05,421.04,0,402.32c.28-102.5.15-205,.13-307.49,0-35.73,24.84-62.92,57.42-72.45,1.25-.37,2.62-.35,4.56-.58,0,6.7.16,13.27-.15,19.82-.06,1.15-1.95,2.57-3.3,3.23-22.86,11.14-34.81,29.16-34.86,54.78-.13,65.32-.28,130.65-.39,195.97-.06,36.16-.19,72.33-.08,108.49.09,30.24,18,54.78,46.51,63.31,6.27,1.87,13.13,2.44,19.71,2.46,83.83.19,167.66-.15,251.49.35,33.55.2,66.67-29.93,65.92-65.3-.82-38.65-.25-77.32-.29-115.99-.05-44.33-.11-88.66-.15-132.99-.02-19.33-.61-38.68.13-57.98.87-22.99-17.27-46.58-37.08-53.08-4.39-1.44-6.01-3.47-5.57-8.11.48-5.07.11-10.23.11-15.84Z"/>
      <path class="cls-1" d="m113.3,51.48h26.19c0,7.63-.01,15.06,0,22.49,0,3.66-.25,7.36.17,10.98,1.38,11.96,12.22,21.47,23.55,20.93,12.59-.59,22.58-10.22,22.67-22.83.12-16.99-.35-33.99-.73-50.98-.12-5.17-3.09-8.52-6.76-8.39-3.68.13-6.29,3.64-6.27,8.75.07,14,.22,27.99.37,41.99.07,6.99-4.7,13.13-10.62,13.55-5.69.41-11-4.97-11.11-12.33-.26-16.48-.47-32.99.08-49.46.42-12.67,7.89-21.43,19.16-24.42,11.95-3.17,24,.91,30.67,11.2,2.15,3.31,3.02,7.68,3.65,11.69.66,4.24.38,8.64.44,12.97.05,4.31.01,8.61.01,13.26h18.18c0-6.48-.45-13.11.14-19.64.51-5.67,1.01-11.86,3.58-16.73,5.95-11.32,18.99-16.55,31.04-13.82,12,2.72,19.79,11.2,20.51,24.97.88,16.95.64,33.97.41,50.96-.1,7.16-5,11.26-11.59,11.06-6.45-.2-10.24-4.55-10.26-12.13-.03-14.16.09-28.33.12-42.49.01-6.79-1.68-9.64-5.81-9.94-4.51-.33-8.47,3.67-8.84,9.58-.34,5.31-.14,10.66-.15,15.99-.02,11-.06,22-.04,32.99.02,14.19,9.31,23.88,23.07,24.11,12.77.22,24.23-10.34,24.68-23.31.3-8.81-.07-17.66-.4-26.48-.13-3.49,1.09-4.77,4.52-4.7,6.96.14,13.93.04,21.35.04,0,10.15.07,19.91-.03,29.67-.06,6.11,1.73,11.48,5.79,16.04,7.54,8.49,17.77,11.33,28.04,7.3,10.42-4.09,16.16-12.02,16.88-23.23.33-5.13.06-10.31.06-15.49,10.51,1.79,20.22,13.41,20.6,25.22.35,10.62.07,21.27.07,32.5H41.33c0-10.72-.5-21.22.13-31.65.78-13.07,9.06-21.21,20.69-27.99,0,6.38-.12,11.91.02,17.44.31,12.2,8.77,22.01,21.03,24.57,11.05,2.31,22.56-3.22,27.22-13.79,1.69-3.82,2.32-8.34,2.45-12.57.29-8.82-.07-17.66-.15-26.49,0-.3.24-.6.57-1.4Z"/>
      <path class="cls-1" d="m386.5,336.45c0,14.64.09,29.29-.03,43.93-.08,9.49.52,19.12-.92,28.43-3.49,22.5-23.17,40.95-47.13,42.79-18.83,1.45-37.87.29-58.7.29,7.61-4.67,5.26-10.75,5.45-16.22.32-9.31,0-18.69.91-27.94,2.08-21.03,18.53-36.17,39.66-37.22,5.97-.3,12.16.33,17.89-1,17.03-3.94,29.84-14.11,39.18-28.77.95-1.49,1.79-3.05,2.68-4.58.34.1.68.19,1.02.29Z"/>
      <path class="cls-1" d="m98.28,44.38c0,10.31.03,20.63-.01,30.94-.03,7.36-5.12,12.91-11.66,12.86-6.59-.05-11.1-5.16-11.1-12.73-.02-20.96-.09-41.92.03-62.88.06-9.23,7.27-14.24,15.93-11.42,4.89,1.59,6.99,4.93,7.01,11.29.03,10.65,0,21.29,0,31.94-.07,0-.14,0-.2,0Z"/>
      <path class="cls-1" d="m329.09,43.69c0-10.49-.02-20.98,0-31.47.02-7.21,3.92-11.47,10.71-11.75,6.91-.29,12.35,4.5,12.39,11.5.11,21.31.07,42.63-.05,63.94-.04,7.06-5.4,12.42-11.79,12.28-6.23-.14-10.55-4.84-10.64-12.03-.13-10.82-.03-21.65-.03-32.47-.2,0-.39,0-.59,0Z"/>
      <path class="cls-1" d="m139.25,18.49v13.61h-27.94v-13.61h27.94Z"/>
      <path class="cls-1" d="m292.21,18.32h23.84v13.68h-23.84v-13.68Z"/>
    </g>
  </g>
</svg>